<svg width="115" height="69" viewBox="0 0 115 69" fill="none" xmlns="http://www.w3.org/2000/svg">
<path d="M2.43 32V9.62H7.32V27.56H16.59V32H2.43ZM26.7729 32.42C21.8829 32.42 18.0429 28.85 18.0429 23.69C18.0429 18.5 21.8829 14.96 26.7729 14.96C31.7229 14.96 35.5029 18.5 35.5029 23.69C35.5029 28.82 31.7229 32.42 26.7729 32.42ZM26.7729 28.1C28.7529 28.1 30.6729 26.48 30.6729 23.69C30.6729 20.87 28.7529 19.28 26.7729 19.28C24.7929 19.28 22.9029 20.87 22.9029 23.69C22.9029 26.51 24.7929 28.1 26.7729 28.1ZM41.0618 13.1C39.5618 13.1 38.4218 11.96 38.4218 10.49C38.4218 9.05 39.5618 7.91 41.0618 7.91C42.5018 7.91 43.6718 9.05 43.6718 10.49C43.6718 11.96 42.5018 13.1 41.0618 13.1ZM35.5118 38.3C37.6418 35.9 38.6618 33.56 38.6618 29.54V15.38H43.4618V29.12C43.4618 32.75 42.8018 35.69 40.7618 38.3H35.5118ZM53.9295 32.42C50.1795 32.42 46.5495 28.94 46.5495 23.75C46.5495 18.44 50.1795 14.96 53.9295 14.96C56.4195 14.96 58.3095 16.22 59.3895 17.93L59.8695 15.38H63.9195V32H59.8695L59.3895 29.45C58.3095 31.19 56.4195 32.42 53.9295 32.42ZM55.3395 28.1C57.5595 28.1 59.2095 26.27 59.2095 23.69C59.2095 21.11 57.5595 19.28 55.3395 19.28C53.0595 19.28 51.3795 21.17 51.3795 23.69C51.3795 26.24 53.0595 28.1 55.3395 28.1ZM81.9394 32.42C78.0694 32.42 74.4694 29 74.4694 23.69C74.4694 18.38 78.0094 14.96 81.8794 14.96C84.1294 14.96 86.0194 16.1 87.0394 17.81V7.91H91.8394V32H87.7894L87.3094 29.45C86.2294 31.19 84.3094 32.42 81.9394 32.42ZM83.2294 28.1C85.4494 28.1 87.0994 26.27 87.0994 23.69C87.0994 21.11 85.4494 19.28 83.2294 19.28C80.9794 19.28 79.2994 21.17 79.2994 23.69C79.2994 26.24 80.9794 28.1 83.2294 28.1ZM110.939 23.42C110.939 24.02 110.909 24.56 110.819 25.04H99.5086C100.139 27.41 102.209 28.64 104.729 28.64C106.559 28.64 108.329 28.01 109.919 26.99V30.92C108.209 31.91 106.259 32.42 104.129 32.42C98.2786 32.42 94.9186 28.79 94.9186 23.75C94.9186 18.47 98.6386 14.96 103.259 14.96C107.489 14.96 110.939 17.87 110.939 23.42ZM99.4186 22.16H106.379C106.349 20 104.999 18.74 103.229 18.74C101.429 18.74 99.8686 20.06 99.4186 22.16Z" fill="white"/>
<path d="M4.011 38.531C4.011 37.725 4.323 36.945 4.947 36.191C5.571 35.437 6.26 34.709 7.014 34.007C7.768 33.305 8.873 32.473 10.329 31.511C11.811 30.523 13.384 29.652 15.048 28.898C16.712 28.118 18.753 27.455 21.171 26.909C23.589 26.363 26.085 26.09 28.659 26.09C30.895 26.09 33.118 26.519 35.328 27.377C36.446 27.819 37.356 28.469 38.058 29.327C38.786 30.159 39.15 31.134 39.15 32.252C39.15 33.994 38.097 35.736 35.991 37.478C33.885 39.22 30.206 41.157 24.954 43.289C24.434 43.419 24.174 43.601 24.174 43.835C24.174 43.913 24.226 44.004 24.33 44.108C28.022 48.372 31.064 51.349 33.456 53.039C33.742 53.273 33.885 53.507 33.885 53.741C33.885 54.313 33.04 54.599 31.35 54.599C29.66 54.599 28.256 54.053 27.138 52.961C22.406 47.943 19.429 44.589 18.207 42.899C18.181 42.795 18.129 42.743 18.051 42.743C17.999 42.743 17.934 42.795 17.856 42.899C13.644 48.073 11.213 51.466 10.563 53.078C10.563 53.494 10.485 53.702 10.329 53.702C10.199 53.702 9.978 53.624 9.666 53.468C9.354 53.312 9.029 53.013 8.691 52.571C8.353 52.129 8.184 51.596 8.184 50.972C8.184 50.322 8.444 49.529 8.964 48.593C12.656 43.237 16.556 38.739 20.664 35.099C22.406 33.565 24.044 32.369 25.578 31.511C25.812 31.303 26.02 31.199 26.202 31.199C26.41 31.199 26.644 31.29 26.904 31.472C27.19 31.654 27.333 31.875 27.333 32.135C27.333 32.369 27.229 32.577 27.021 32.759C23.615 36.191 21.275 38.752 20.001 40.442C19.663 40.806 19.494 41.053 19.494 41.183C19.494 41.313 19.559 41.378 19.689 41.378H19.845C22.965 40.52 25.487 39.662 27.411 38.804C31.493 36.958 34.587 35.008 36.693 32.954C37.135 32.538 37.356 32.135 37.356 31.745C37.356 31.147 36.849 30.692 35.835 30.38C34.847 30.068 33.261 29.912 31.077 29.912C28.919 29.912 26.267 30.237 23.121 30.887C19.975 31.537 16.842 32.59 13.722 34.046C10.602 35.476 8.288 37.14 6.78 39.038C6.572 39.272 6.468 39.441 6.468 39.545C6.468 39.623 6.611 39.662 6.897 39.662C7.183 39.662 8.067 39.337 9.549 38.687C11.057 38.037 12.344 37.4 13.41 36.776C15.074 35.658 16.114 35.099 16.53 35.099C16.686 35.099 16.764 35.138 16.764 35.216C16.764 35.268 16.595 35.489 16.257 35.879C15.945 36.269 15.49 36.763 14.892 37.361C14.32 37.959 13.605 38.622 12.747 39.35C10.797 41.04 9.003 41.885 7.365 41.885C6.481 41.885 5.766 41.612 5.22 41.066C4.648 40.494 4.31 39.922 4.206 39.35L4.011 38.531ZM35.264 51.284C36.096 51.284 37.123 50.738 38.345 49.646C39.567 48.554 40.204 47.8 40.256 47.384C39.944 47.124 39.606 46.656 39.242 45.98C38.904 45.278 38.722 44.927 38.696 44.927C37.89 45.681 37.175 46.552 36.551 47.54C35.563 49.204 35.069 50.348 35.069 50.972C35.069 51.18 35.134 51.284 35.264 51.284ZM43.688 41.729C43.428 41.729 42.882 42.132 42.05 42.938C41.244 43.744 40.841 44.303 40.841 44.615C40.841 44.693 40.919 44.849 41.075 45.083C41.231 45.317 41.348 45.434 41.426 45.434C41.868 45.434 42.362 44.901 42.908 43.835C43.48 42.769 43.766 42.158 43.766 42.002C43.766 41.82 43.74 41.729 43.688 41.729ZM43.766 46.76C44.494 46.76 45.625 46.318 47.159 45.434C48.719 44.55 50.084 43.666 51.254 42.782L53.009 41.417C53.243 41.599 53.36 41.82 53.36 42.08C53.36 42.34 53.243 42.574 53.009 42.782C48.719 46.76 45.469 48.749 43.259 48.749C43.103 48.749 42.869 48.723 42.557 48.671C39.619 52.077 37.097 53.78 34.991 53.78C33.587 53.572 32.703 53.078 32.339 52.298C32.131 51.908 32.027 51.414 32.027 50.816C32.027 49.1 33.015 47.059 34.991 44.693C36.967 42.301 39.45 40.546 42.44 39.428C42.7 39.428 42.895 39.493 43.025 39.623C43.155 39.727 43.272 39.792 43.376 39.818C43.48 39.818 43.61 39.766 43.766 39.662C43.948 39.532 44.182 39.467 44.468 39.467C44.754 39.441 45.053 39.597 45.365 39.935C45.781 40.273 45.989 40.689 45.989 41.183C45.989 42.639 45.248 44.498 43.766 46.76ZM56.1339 49.529C60.0079 47.449 64.2719 44.68 68.9259 41.222C69.1599 41.404 69.2769 41.625 69.2769 41.885C69.2769 42.145 69.1469 42.392 68.8869 42.626C68.6269 42.86 68.2499 43.198 67.7559 43.64C67.2879 44.082 66.3779 44.875 65.0259 46.019C63.6739 47.163 62.4129 48.203 61.2429 49.139C58.1749 51.609 55.9129 53.065 54.4569 53.507C53.9889 53.637 53.4819 53.702 52.9359 53.702C52.0519 53.702 51.6099 53.013 51.6099 51.635C51.6099 51.349 51.7269 50.92 51.9609 50.348C52.2209 49.776 52.3639 49.451 52.3899 49.373C52.4419 49.269 52.4809 49.191 52.5069 49.139C52.5329 49.087 52.5589 49.048 52.5849 49.022C52.6109 48.97 52.6239 48.918 52.6239 48.866C52.6239 48.814 52.5459 48.788 52.3899 48.788C52.2599 48.788 51.8309 49.139 51.1029 49.841C50.3749 50.517 49.7639 51.063 49.2699 51.479C48.8019 51.895 48.2559 52.285 47.6319 52.649C47.0339 53.013 46.5399 53.195 46.1499 53.195C45.1099 53.195 44.5899 52.714 44.5899 51.752C44.5899 51.18 44.7849 50.478 45.1749 49.646C46.0849 47.722 47.4499 45.798 49.2699 43.874C51.0899 41.95 52.3899 40.975 53.1699 40.949C53.4559 40.949 53.7159 41.053 53.9499 41.261C54.1839 41.469 54.3009 41.703 54.3009 41.963C54.3009 42.223 54.0409 42.613 53.5209 43.133C53.0009 43.653 52.3379 44.329 51.5319 45.161C50.7519 45.967 50.1929 46.643 49.8549 47.189C49.5429 47.735 49.3869 48.099 49.3869 48.281C49.3869 48.463 49.4909 48.554 49.6989 48.554C49.9069 48.554 50.2839 48.385 50.8299 48.047C52.3119 47.033 54.0019 45.785 55.8999 44.303C57.8239 42.821 59.0589 41.742 59.6049 41.066C59.7349 40.598 60.1249 40.364 60.7749 40.364C62.0229 40.364 62.6469 40.585 62.6469 41.027C62.6469 41.209 62.0359 41.885 60.8139 43.055C57.1479 46.565 55.3149 48.736 55.3149 49.568C55.3149 49.698 55.3669 49.763 55.4709 49.763C55.6009 49.763 55.8219 49.685 56.1339 49.529ZM65.8175 51.83C66.6755 51.83 67.9755 51.336 69.7175 50.348C71.4855 49.334 73.0585 48.242 74.4365 47.072C75.8405 45.902 76.5425 45.083 76.5425 44.615C76.5425 44.537 76.5035 44.498 76.4255 44.498C75.8535 44.498 74.6445 45.083 72.7985 46.253C70.9785 47.397 69.2885 48.567 67.7285 49.763C66.1685 50.933 65.3885 51.57 65.3885 51.674C65.3885 51.778 65.5315 51.83 65.8175 51.83ZM75.7235 35.372C76.0095 35.372 76.3215 35.593 76.6595 36.035C76.9975 36.451 77.1665 36.763 77.1665 36.971C77.1665 37.179 77.1275 37.322 77.0495 37.4C75.2555 38.96 73.5135 40.598 71.8235 42.314C70.1335 44.03 68.8855 45.356 68.0795 46.292L66.9095 47.696C66.7015 47.904 66.5975 48.047 66.5975 48.125C66.5975 48.203 66.6235 48.242 66.6755 48.242C66.7275 48.242 66.7925 48.203 66.8705 48.125L67.2215 47.852C71.4855 44.056 74.8005 42.158 77.1665 42.158C77.4785 42.158 77.7645 42.249 78.0245 42.431C78.9085 43.159 79.3505 43.991 79.3505 44.927C79.3505 45.837 78.6875 47.007 77.3615 48.437C76.0615 49.867 74.4495 51.128 72.5255 52.22C70.6015 53.286 68.9895 53.819 67.6895 53.819C66.4155 53.819 65.5705 53.481 65.1545 52.805L64.7255 52.181C64.6995 52.155 64.6605 52.142 64.6085 52.142C64.0365 52.142 62.1515 53.962 58.9535 57.602C55.7295 61.242 53.6625 63.881 52.7525 65.519C52.6485 65.987 52.4405 66.221 52.1285 66.221C51.9725 66.221 51.8295 66.169 51.6995 66.065L49.9445 64.7C49.8405 64.648 49.7885 64.531 49.7885 64.349C49.7885 64.037 51.7645 61.476 55.7165 56.666C59.6425 51.882 63.7635 47.137 68.0795 42.431C72.3955 37.725 74.9435 35.372 75.7235 35.372ZM85.5338 51.362L85.8458 48.866C85.8458 48.788 85.8198 48.749 85.7678 48.749C85.7418 48.749 85.6768 48.801 85.5728 48.905C85.2348 49.269 84.8058 49.724 84.2858 50.27C83.7658 50.79 82.8688 51.505 81.5948 52.415C80.3468 53.299 79.3328 53.741 78.5528 53.741C78.4228 53.715 78.2668 53.663 78.0848 53.585C77.8768 53.533 77.6168 53.325 77.3048 52.961C76.9928 52.597 76.8368 52.077 76.8368 51.401C76.8368 50.725 77.3568 49.698 78.3968 48.32C79.4108 46.916 80.6328 45.551 82.0628 44.225C83.4928 42.873 85.0788 41.703 86.8208 40.715C88.5888 39.727 90.1228 39.233 91.4228 39.233C91.9168 39.259 92.3068 39.61 92.5928 40.286C92.8528 40.026 93.0868 39.896 93.2948 39.896C93.5028 39.896 93.7498 40.052 94.0358 40.364C94.1918 40.39 94.3478 40.481 94.5038 40.637C94.6598 40.767 94.7378 40.962 94.7378 41.222C94.7378 41.482 94.5558 41.768 94.1918 42.08C93.6458 42.756 93.0088 43.523 92.2808 44.381C91.5528 45.239 91.0328 45.863 90.7208 46.253C90.4088 46.617 90.0838 47.033 89.7458 47.501C89.1738 48.307 88.8618 48.957 88.8098 49.451C91.4618 48.177 95.6348 45.434 101.329 41.222C101.563 41.404 101.68 41.625 101.68 41.885C101.68 42.145 101.576 42.366 101.368 42.548C101.16 42.73 100.9 42.951 100.588 43.211C100.302 43.471 99.7168 43.978 98.8328 44.732C97.9488 45.486 97.0908 46.214 96.2588 46.916C95.4528 47.592 94.5168 48.359 93.4508 49.217C92.4108 50.049 91.4748 50.764 90.6428 51.362C88.6408 52.792 87.3928 53.507 86.8988 53.507C86.4048 53.507 86.0538 53.351 85.8458 53.039C85.6378 52.727 85.5338 52.168 85.5338 51.362ZM81.5558 49.724C81.8678 49.724 82.8168 49.087 84.4028 47.813C86.0148 46.539 87.5358 45.265 88.9658 43.991L91.1498 42.08C91.2538 41.976 91.3058 41.911 91.3058 41.885C91.3058 41.833 91.2668 41.807 91.1888 41.807C90.2008 41.807 88.9138 42.379 87.3278 43.523C85.7418 44.641 84.3638 45.837 83.1938 47.111C82.0498 48.359 81.4778 49.204 81.4778 49.646C81.4778 49.698 81.5038 49.724 81.5558 49.724ZM98.5805 50.153C99.4905 50.153 100.323 49.607 101.077 48.515C101.857 47.397 102.403 46.279 102.715 45.161C103.027 44.017 103.183 43.107 103.183 42.431C103.183 42.249 103.04 42.158 102.754 42.158C102.494 42.158 102.182 42.301 101.818 42.587L96.7085 46.526C96.3445 46.734 95.9285 46.838 95.4605 46.838C94.9925 46.838 94.7585 46.669 94.7585 46.331C94.7585 46.097 94.7845 45.941 94.8365 45.863C94.9145 45.785 95.1095 45.655 95.4215 45.473C97.3455 44.147 99.9715 41.989 103.3 38.999C103.69 38.479 104.041 38.219 104.353 38.219C104.665 38.219 105.185 38.323 105.913 38.531C106.641 38.713 107.005 38.934 107.005 39.194C107.005 40.754 106.862 42.171 106.576 43.445C106.29 44.719 105.991 45.694 105.679 46.37C105.393 47.02 105.25 47.371 105.25 47.423C105.25 47.475 105.276 47.501 105.328 47.501C105.38 47.501 105.484 47.462 105.64 47.384C107.59 46.396 110.073 44.784 113.089 42.548L114.025 41.846C114.259 42.028 114.376 42.249 114.376 42.509C114.376 42.769 114.259 43.003 114.025 43.211C113.973 43.211 113.297 43.757 111.997 44.849C110.723 45.941 109.293 47.137 107.707 48.437C106.147 49.711 104.47 50.881 102.676 51.947C100.882 53.013 99.4905 53.546 98.5025 53.546C96.0585 53.546 94.8365 52.077 94.8365 49.139C94.8365 48.905 94.9275 48.697 95.1095 48.515C95.3175 48.307 95.5775 48.203 95.8895 48.203C95.8895 48.333 95.9545 48.541 96.0845 48.827C96.2405 49.087 96.3965 49.308 96.5525 49.49C97.0205 49.932 97.6965 50.153 98.5805 50.153Z" fill="#D49503"/>
</svg>
