<?xml version="1.0" encoding="UTF-8"?>
<svg version="1.1" xmlns="http://www.w3.org/2000/svg" width="512" height="512">
<path d="M0 0 C2.5 0.8125 2.5 0.8125 5.5 2.8125 C5.828125 4.6953125 5.828125 4.6953125 5.75 6.9375 C5.70939453 8.13246094 5.70939453 8.13246094 5.66796875 9.3515625 C4.98722317 19.32527683 4.98722317 19.32527683 3.5 20.8125 C3.11100869 24.0674041 3.02400621 27.35132794 2.875 30.625 C2.83068848 31.57665039 2.78637695 32.52830078 2.74072266 33.50878906 C2.46664277 40.30643294 2.30776643 47.08300387 3.5 53.8125 C3.83 54.1425 4.16 54.4725 4.5 54.8125 C4.88755582 57.12292891 5.25974393 59.43594096 5.625 61.75 C6.76832967 68.2776419 8.84900216 72.73455857 13.07421875 77.95703125 C14.5 79.8125 14.5 79.8125 14.5 81.8125 C15.2321875 82.09222656 15.964375 82.37195313 16.71875 82.66015625 C19.26573393 83.71543751 21.58715475 84.92376143 24 86.25 C29.03753334 88.81018137 34.01753309 90.05130357 39.53125 91.19140625 C42.5 91.8125 42.5 91.8125 46.1875 92.9375 C53.95213711 94.98853622 62.07317641 94.99412981 70.0625 95 C70.94357422 95.01224609 71.82464844 95.02449219 72.73242188 95.03710938 C78.59051519 95.05007932 83.84266968 94.29598081 89.5 92.8125 C90.18263916 92.65813477 90.86527832 92.50376953 91.56860352 92.34472656 C93.70313234 91.86024753 93.70313234 91.86024753 96.5 90.8125 C96.83 89.8225 97.16 88.8325 97.5 87.8125 C99.14333504 86.77460419 100.81243867 85.77682076 102.5 84.8125 C103.056875 84.255625 103.61375 83.69875 104.1875 83.125 C104.620625 82.691875 105.05375 82.25875 105.5 81.8125 C106.16 81.8125 106.82 81.8125 107.5 81.8125 C107.768125 80.843125 108.03625 79.87375 108.3125 78.875 C108.704375 77.864375 109.09625 76.85375 109.5 75.8125 C110.985 75.3175 110.985 75.3175 112.5 74.8125 C113.71869929 72.30802484 113.71869929 72.30802484 114.5 69.8125 C115.16 69.8125 115.82 69.8125 116.5 69.8125 C116.5825 69.27625 116.665 68.74 116.75 68.1875 C117.76454342 64.97477916 119.59783684 62.57928277 121.5 59.8125 C122.19429379 58.4933418 122.87530495 57.16600594 123.5 55.8125 C124.16 55.8125 124.82 55.8125 125.5 55.8125 C125.603125 55.07 125.70625 54.3275 125.8125 53.5625 C126.5 50.8125 126.5 50.8125 127.875 49.0625 C131.70364075 43.76130511 133.19158156 37.2672612 132.5 30.8125 C131.78529043 28.54925302 130.98273879 26.3269974 130.1796875 24.09375 C129.09999181 20.46994377 129.1039845 17.57464729 129.5 13.8125 C132.5 11.8125 132.5 11.8125 135.875 11.5 C140.19539685 13.06428162 140.50716901 13.92835101 142.4375 17.9375 C144.25146501 22.48426849 145.03856695 25.96539746 144.5 30.8125 C145.098125 30.915625 145.69625 31.01875 146.3125 31.125 C148.92368447 31.94565798 149.94318272 32.55511495 151.5 34.8125 C152.0625 37.5625 152.0625 37.5625 151.5 40.8125 C149.24288432 44.18721664 146.43170294 46.96549733 143.4375 49.6875 C139.24170734 54.28933711 136.53663061 57.98583791 136.453125 64.4296875 C137.25786142 74.01876978 140.19947344 82.83125947 143.5 91.8125 C143.98555708 93.3104436 144.46573573 94.81015544 144.9375 96.3125 C148.30292734 106.35206133 152.41357452 116.03228097 157.30078125 125.421875 C159.66881167 130.14250894 159.82959505 133.62137796 159.5 138.8125 C156.5 140.8125 156.5 140.8125 153.0625 140.9375 C149.5 139.8125 149.5 139.8125 148.296875 138.2734375 C147.23460181 136.15732186 146.3566656 134.01962971 145.5 131.8125 C144.83785166 130.3521096 144.17113392 128.89378288 143.5 127.4375 C140.23556423 119.99970714 137.32051031 112.42787784 134.5 104.8125 C134.26216797 106.01132812 134.26216797 106.01132812 134.01953125 107.234375 C131.06888481 121.12360575 125.4005721 133.87159015 117.7578125 145.81640625 C106.20436005 164.15123296 104.66274296 184.48229433 107 205.73046875 C107.60037897 211.26272549 107.68379757 216.75144759 107.6875 222.3125 C107.69974609 223.28058594 107.71199219 224.24867188 107.72460938 225.24609375 C107.73729702 231.5476244 107.41473954 237.76296812 105.5 243.8125 C104.84 244.4725 104.18 245.1325 103.5 245.8125 C102.99274183 251.49379154 103.94270532 255.84246929 105.70703125 261.2265625 C106.75040256 264.62908371 107.37650287 268.06374229 108.02734375 271.55859375 C108.49623624 274.01970783 108.49623624 274.01970783 109.625 277.125 C110.54548715 279.95221052 110.97688139 281.87173142 110.5 284.8125 C108.73299692 286.80149267 107.24490737 287.70492968 104.5973835 288.08725238 C102.11441421 288.20153479 99.64794241 288.21201351 97.16235352 288.19345093 C96.20620683 288.1981309 95.25006014 288.20281087 94.26493931 288.20763266 C91.05278827 288.2196233 87.84106065 288.2101094 84.62890625 288.20068359 C82.32941437 288.20474748 80.02992444 288.21008832 77.73043823 288.21661377 C71.47849128 288.23031488 65.2266925 288.22497713 58.97474289 288.21547651 C52.43961938 288.20789441 45.90450876 288.21492149 39.36938477 288.21963501 C27.69016513 288.2260472 16.01100796 288.21610927 4.33179915 288.200857 C-6.25962831 288.18745356 -16.85095713 288.18978158 -27.44238281 288.20361328 C-39.73914511 288.2196645 -52.0358445 288.22564566 -64.33261585 288.21677649 C-70.84293296 288.21209336 -77.3531821 288.21149272 -83.86349487 288.22138596 C-89.98333391 288.23003578 -96.10298621 288.22406991 -102.22280502 288.20670319 C-104.47225509 288.20272774 -106.72172081 288.20389037 -108.9711647 288.21049118 C-112.03510832 288.21865486 -115.09844863 288.20844757 -118.16235352 288.19345093 C-119.05845557 288.20014309 -119.95455763 288.20683526 -120.87781429 288.21373022 C-126.85925163 288.15670664 -126.85925163 288.15670664 -130.06846619 286.43273354 C-131.5 284.8125 -131.5 284.8125 -131.7421875 282.5078125 C-131.56042969 281.23550781 -131.56042969 281.23550781 -131.375 279.9375 C-131.26929688 279.09445312 -131.16359375 278.25140625 -131.0546875 277.3828125 C-130.4743677 274.69372498 -129.5207739 272.36244882 -128.5 269.8125 C-128.14375905 268.07087758 -127.83223032 266.3196004 -127.5625 264.5625 C-126.94323011 260.82674178 -126.09312433 257.47577467 -124.75 253.9375 C-123.7166211 251.01911337 -123.41641812 250.14682752 -124.1875 247.0625 C-124.620625 246.32 -125.05375 245.5775 -125.5 244.8125 C-128.536468 237.84648519 -128.66230854 231.16986086 -128.625 223.6875 C-128.62306641 222.74463135 -128.62113281 221.8017627 -128.61914062 220.83032227 C-128.58986362 216.10981234 -128.4720828 211.4505959 -128 206.75 C-125.98960199 186.32552165 -125.75797083 162.5454234 -139.15625 145.734375 C-140.5 143.8125 -140.5 143.8125 -140.5 140.8125 C-141.49 140.4825 -142.48 140.1525 -143.5 139.8125 C-144.5625 137.80859375 -144.5625 137.80859375 -145.5 135.25 C-145.83902344 134.3425 -146.17804688 133.435 -146.52734375 132.5 C-147.00880859 131.1696875 -147.00880859 131.1696875 -147.5 129.8125 C-148.02033281 128.45814093 -148.54111795 127.10395549 -149.0625 125.75 C-151.61486194 118.85584847 -153.80846314 111.96900212 -155.5 104.8125 C-155.9125 105.92625 -156.325 107.04 -156.75 108.1875 C-159.46647759 115.41868681 -162.27760122 122.61515206 -165.51171875 129.6328125 C-166.1811802 131.10933222 -166.80792247 132.60583736 -167.39453125 134.1171875 C-168.28017546 136.23519621 -169.08556669 138.00312752 -170.5 139.8125 C-174.0625 140.9375 -174.0625 140.9375 -177.5 140.8125 C-178.49 140.1525 -179.48 139.4925 -180.5 138.8125 C-181.09231698 132.86385417 -180.06086354 128.59630014 -177.6875 123.1875 C-177.29594727 122.24390625 -177.29594727 122.24390625 -176.89648438 121.28125 C-175.25526292 117.3747377 -173.41613414 113.58986473 -171.5 109.8125 C-170.01209295 106.27872075 -168.67995273 102.68503575 -167.34765625 99.08984375 C-166.76170952 97.5156182 -166.16461651 95.94551279 -165.55859375 94.37890625 C-161.56648987 83.84288306 -157.5 72.17882924 -157.5 60.8125 C-160.68584043 54.10189995 -164.16543012 48.65359501 -170.03515625 44.1015625 C-172.54201546 41.8955264 -173.2265115 40.094362 -173.5 36.8125 C-172.13069363 34.21615285 -170.70916761 32.87438977 -168.5 30.8125 C-167.51 30.8125 -166.52 30.8125 -165.5 30.8125 C-165.6546875 29.4203125 -165.6546875 29.4203125 -165.8125 28 C-165.84641429 22.49457969 -163.17961253 17.50588195 -160.5 12.8125 C-157.73749964 11.43124982 -155.55268901 11.62170694 -152.5 11.8125 C-150.5 13.8125 -150.5 13.8125 -150.25 17.375 C-150.52286585 28.83536585 -150.52286585 28.83536585 -153.5 31.8125 C-154.99177696 43.44836028 -145.41008423 55.84373014 -138.85546875 64.6484375 C-137.5 66.8125 -137.5 66.8125 -137.5 69.8125 C-136.51 70.1425 -135.52 70.4725 -134.5 70.8125 C-134.16666667 72.14583333 -133.83333333 73.47916667 -133.5 74.8125 C-132.51 75.1425 -131.52 75.4725 -130.5 75.8125 C-130.190625 76.781875 -129.88125 77.75125 -129.5625 78.75 C-128.86296664 81.8765377 -128.86296664 81.8765377 -126.703125 82.7890625 C-125.97609375 83.12679687 -125.2490625 83.46453125 -124.5 83.8125 C-123.04141866 84.93137478 -121.60486509 86.07935211 -120.1875 87.25 C-111.52451556 94.06979626 -102.91077976 95.01048996 -92.125 95 C-91.25665527 94.99919434 -90.38831055 94.99838867 -89.49365234 94.99755859 C-83.66276696 94.94340176 -77.91700115 94.61016517 -72.125 93.9375 C-71.44260254 93.85910889 -70.76020508 93.78071777 -70.05712891 93.69995117 C-65.99976538 93.1716328 -62.34040482 92.20410736 -58.5 90.8125 C-57.79617187 90.60109375 -57.09234375 90.3896875 -56.3671875 90.171875 C-48.61764865 87.80142782 -40.20902236 84.69664575 -34.5 78.8125 C-33.84 78.8125 -33.18 78.8125 -32.5 78.8125 C-32.33757812 77.96751953 -32.33757812 77.96751953 -32.171875 77.10546875 C-31.39139026 74.44183768 -30.24753785 72.46007835 -28.75 70.125 C-28.01523437 68.94357422 -28.01523437 68.94357422 -27.265625 67.73828125 C-25.07272353 65.34646615 -23.69097968 65.06307373 -20.5 64.8125 C-18.25 65.4375 -18.25 65.4375 -16.5 66.8125 C-15.04693675 70.20298093 -15.47655003 71.7446185 -16.6875 75.25 C-18.44739763 78.70910913 -20.16418491 81.72319617 -22.5 84.8125 C-23.16 84.8125 -23.82 84.8125 -24.5 84.8125 C-25.49 86.7925 -25.49 86.7925 -26.5 88.8125 C-27.16 88.8125 -27.82 88.8125 -28.5 88.8125 C-28.83 89.8025 -29.16 90.7925 -29.5 91.8125 C-31.9728839 93.7797069 -34.7530235 95.25860611 -37.5 96.8125 C-38.43392578 97.35970703 -38.43392578 97.35970703 -39.38671875 97.91796875 C-44.2141242 100.55937928 -49.12243214 101.88070599 -54.47265625 103.1015625 C-57.55538274 103.78559019 -57.55538274 103.78559019 -60.73046875 104.83203125 C-65.39421832 106.04508943 -69.9586087 106.47221491 -74.75 106.875 C-76.52631786 107.02940694 -78.30237694 107.18682877 -80.078125 107.34765625 C-81.24456543 107.44639038 -81.24456543 107.44639038 -82.43457031 107.54711914 C-84.69349118 107.76991386 -84.69349118 107.76991386 -87.5 108.8125 C-89.20632648 108.90517588 -90.91616587 108.94248202 -92.625 108.9375 C-93.51445312 108.94007813 -94.40390625 108.94265625 -95.3203125 108.9453125 C-97.5 108.8125 -97.5 108.8125 -98.5 107.8125 C-101.98660532 107.26942928 -105.48286674 106.84601345 -108.984375 106.41015625 C-123.89307879 103.87567661 -134.79923095 92.31325057 -143.5 80.8125 C-143.89792663 88.19624978 -143.31185105 95.27661984 -142.1875 102.5625 C-142.06979248 103.35374268 -141.95208496 104.14498535 -141.83081055 104.96020508 C-140.97337782 110.21067765 -139.52603252 114.90299705 -137.5 119.8125 C-137.06300781 120.94171875 -136.62601563 122.0709375 -136.17578125 123.234375 C-133.22202772 130.44525754 -129.79116732 136.67135626 -125.328125 143.05078125 C-123.2399362 146.20537415 -121.706552 149.37764274 -120.2890625 152.875 C-119.53339637 154.8382358 -119.53339637 154.8382358 -118.46484375 156.69140625 C-115.02535723 164.25270657 -115.23055384 174.05396884 -114.74609375 182.23046875 C-114.65796565 184.79684594 -114.65796565 184.79684594 -113.5 186.8125 C-113.40500497 188.31006871 -113.37012802 189.81192932 -113.375 191.3125 C-113.37113281 192.50359375 -113.37113281 192.50359375 -113.3671875 193.71875 C-113.5 195.8125 -113.5 195.8125 -114.5 197.8125 C-117.91633979 221.70910349 -117.91633979 221.70910349 -111.5 243.8125 C-108.25 245.89583333 -108.25 245.89583333 -104.5 246.8125 C-102.10901263 248.05916267 -99.82168722 249.43844022 -97.5 250.8125 C-97.5 251.4725 -97.5 252.1325 -97.5 252.8125 C-96.448125 253.1528125 -96.448125 253.1528125 -95.375 253.5 C-89.12145104 256.35488105 -85.37189483 260.90048083 -81.6875 266.5 C-81.29369141 267.08072266 -80.89988281 267.66144531 -80.49414062 268.25976562 C-79.05192533 270.39958764 -77.65520431 272.50209138 -76.5 274.8125 C-71.88 274.8125 -67.26 274.8125 -62.5 274.8125 C-62.5 274.1525 -62.5 273.4925 -62.5 272.8125 C-63.49 272.4825 -64.48 272.1525 -65.5 271.8125 C-67.61610079 268.70800104 -69.0239548 265.25811471 -70.5 261.8125 C-70.89960938 260.88308594 -71.29921875 259.95367187 -71.7109375 258.99609375 C-75.46121912 248.79585969 -74.89538362 238.53499967 -74.5 227.8125 C-73.51 227.4825 -72.52 227.1525 -71.5 226.8125 C-71.17 225.8225 -70.84 224.8325 -70.5 223.8125 C-68.1875 223.5625 -68.1875 223.5625 -65.5 223.8125 C-63.2508219 226.05638591 -62.54251401 227.36159381 -62.2421875 230.546875 C-62.28601563 231.54203125 -62.32984375 232.5371875 -62.375 233.5625 C-62.63535 245.50967227 -59.77717198 254.55426908 -53.453125 264.70703125 C-52.31843689 267.21357588 -52.3290281 269.09119719 -52.5 271.8125 C-53.49 272.1425 -54.48 272.4725 -55.5 272.8125 C-55.5 273.4725 -55.5 274.1325 -55.5 274.8125 C-25.8 274.8125 3.9 274.8125 34.5 274.8125 C34.5 274.1525 34.5 273.4925 34.5 272.8125 C33.51 272.4825 32.52 272.1525 31.5 271.8125 C31.23549867 267.85890112 31.82235833 265.68215454 33.875 262.3125 C35.70413718 259.19523805 37.297824 256.23407785 38.5 252.8125 C39.00080078 251.47445312 39.00080078 251.47445312 39.51171875 250.109375 C40.56988243 246.57937442 40.90909526 243.42437887 41.125 239.75 C41.19976562 238.56277344 41.27453125 237.37554687 41.3515625 236.15234375 C41.44228402 234.11110956 41.48746047 232.06639822 41.453125 230.0234375 C41.5 227.8125 41.5 227.8125 42.625 225.5 C44.5 223.8125 44.5 223.8125 47.5 223.3125 C50.5 223.8125 50.5 223.8125 52.16015625 225.22265625 C54.25919736 229.27998643 53.98695331 233.24737465 53.9375 237.75 C53.93065186 238.69206299 53.92380371 239.63412598 53.91674805 240.60473633 C53.74281198 248.20515624 52.51780563 254.7936682 49.5 261.8125 C49.07976562 262.79347656 48.65953125 263.77445312 48.2265625 264.78515625 C45.95710784 269.67479947 45.95710784 269.67479947 44.5 271.8125 C43.51 272.1425 42.52 272.4725 41.5 272.8125 C41.5 273.4725 41.5 274.1325 41.5 274.8125 C46.45 275.1425 51.4 275.4725 56.5 275.8125 C56.83 274.1625 57.16 272.5125 57.5 270.8125 C64.79179023 258.29964638 76.73226032 248.40174656 90.5 243.8125 C98.33773342 232.43599062 95.55908295 210.90420021 93.5 197.8125 C93.17 197.1525 92.84 196.4925 92.5 195.8125 C92.40500497 194.31493129 92.37012802 192.81307068 92.375 191.3125 C92.37242187 190.5184375 92.36984375 189.724375 92.3671875 188.90625 C92.5 186.8125 92.5 186.8125 93.5 184.8125 C93.69530576 183.37600548 93.84338146 181.93289461 93.96484375 180.48828125 C94.04283203 179.62396484 94.12082031 178.75964844 94.20117188 177.86914062 C94.35702565 176.05943358 94.51072036 174.24953913 94.66210938 172.43945312 C95.12671174 167.33638166 95.90104807 162.71116171 97.5 157.8125 C97.78359375 156.88566406 98.0671875 155.95882812 98.359375 155.00390625 C100.21070152 149.53924507 102.30292415 145.43369973 105.921875 140.96484375 C111.16167262 133.81848611 114.42471182 125.07302744 117.5 116.8125 C117.77714844 116.13316406 118.05429687 115.45382812 118.33984375 114.75390625 C122.35863254 104.17709395 122.92701153 92.00969117 122.5 80.8125 C121.943125 81.52535156 121.38625 82.23820312 120.8125 82.97265625 C111.61077921 94.52143758 101.62686725 104.51907174 86.5 106.8125 C85.51515625 106.99554688 84.5303125 107.17859375 83.515625 107.3671875 C69.64644161 109.8857208 69.64644161 109.8857208 65.5 107.8125 C63.91738883 107.61582705 62.32848604 107.46843317 60.73828125 107.34765625 C59.78373047 107.26966797 58.82917969 107.19167969 57.84570312 107.11132812 C55.84328222 106.95531207 53.84067881 106.80161889 51.83789062 106.65039062 C46.47223827 106.2077513 41.65219647 105.4726522 36.5 103.8125 C34.52225978 103.34805004 32.54313261 102.88945643 30.5625 102.4375 C25.4274247 101.17140509 21.0917162 99.3901225 16.5 96.8125 C15.16948946 96.14021738 13.83683275 95.47212142 12.5 94.8125 C12.5 94.1525 12.5 93.4925 12.5 92.8125 C10.85 92.1525 9.2 91.4925 7.5 90.8125 C7.5 90.1525 7.5 89.4925 7.5 88.8125 C6.18 88.1525 4.86 87.4925 3.5 86.8125 C3.5 86.1525 3.5 85.4925 3.5 84.8125 C2.51 84.4825 1.52 84.1525 0.5 83.8125 C-3.78370409 78.31420908 -5.46674597 71.91911157 -6.921875 65.21875 C-7.26341359 62.87496886 -7.26341359 62.87496886 -8.5 61.8125 C-9.6824284 54.21831198 -9.65322475 46.62433468 -9.63037109 38.95605469 C-9.62501124 36.8169852 -9.63034373 34.67812562 -9.63671875 32.5390625 C-9.64755999 14.34243417 -9.64755999 14.34243417 -7.125 6.9375 C-6.89039063 6.21820313 -6.65578125 5.49890625 -6.4140625 4.7578125 C-4.88976778 1.51380066 -3.70899431 -0.27817457 0 0 Z M-112.5 257.8125 C-113.17548578 259.87212852 -113.84004312 261.93534322 -114.5 264 C-114.87125 265.14855469 -115.2425 266.29710937 -115.625 267.48046875 C-116.71165912 271.04433805 -116.71165912 271.04433805 -116.5 275.8125 C-108.25 275.8125 -100 275.8125 -91.5 275.8125 C-93.18333046 269.07917816 -99.16536208 264.27861361 -104.75 260.3125 C-107.4393151 258.84560086 -109.51577653 258.33323698 -112.5 257.8125 Z M74.5 267.8125 C71.14659634 271.28039435 71.14659634 271.28039435 70.5 275.8125 C79.08 275.8125 87.66 275.8125 96.5 275.8125 C95.18199806 268.56348931 94.20846007 263.33742652 91.5 256.8125 C85.70197107 256.8125 78.41529625 263.96820653 74.5 267.8125 Z " fill="#FEFEFE" transform="translate(266.5,188.1875)"/>
<path d="M0 0 C1.38791245 -0.01268921 1.38791245 -0.01268921 2.80386353 -0.02563477 C3.81177948 -0.01956207 4.81969543 -0.01348938 5.8581543 -0.00723267 C6.92520599 -0.01248962 7.99225769 -0.01774658 9.09164429 -0.02316284 C12.62203571 -0.0363765 16.15197697 -0.02761961 19.68237305 -0.01748657 C22.13330166 -0.01950691 24.58422969 -0.022418 27.03515625 -0.02618408 C32.17315389 -0.0306093 37.31099513 -0.02416983 42.44897461 -0.01016235 C49.04008941 0.00692941 55.63083774 -0.00291068 62.22193909 -0.02087975 C67.28335336 -0.0317121 72.34468053 -0.02827371 77.40609741 -0.02049637 C79.8366195 -0.01849286 82.26714945 -0.0209589 84.69766235 -0.02793503 C88.0925191 -0.03554026 91.48677954 -0.02395762 94.8815918 -0.00723267 C95.88950775 -0.01330536 96.89742371 -0.01937805 97.93588257 -0.02563477 C98.86115753 -0.01717529 99.7864325 -0.00871582 100.73974609 0 C101.94318916 0.00169662 101.94318916 0.00169662 103.17094421 0.00342751 C105.94706499 0.48004621 107.33269472 1.46184429 109.36987305 3.38095093 C109.89990234 6.04476929 109.89990234 6.04476929 109.9440918 9.22079468 C109.97180664 10.36612671 109.99952148 11.51145874 110.02807617 12.6914978 C110.03774414 13.88839233 110.04741211 15.08528687 110.05737305 16.31845093 C110.09950724 18.68179599 110.14494129 21.04508513 110.1940918 23.40829468 C110.20529053 24.45751099 110.21648926 25.50672729 110.22802734 26.58773804 C110.35257051 29.04023088 110.54726528 31.07279269 111.36987305 33.38095093 C113.21740971 34.51852633 113.21740971 34.51852633 115.36987305 35.38095093 C116.5825659 36.29184239 117.79050098 37.20908589 118.99487305 38.13095093 C124.83922746 42.11485252 131.37416007 43.91493961 138.06518555 45.98641968 C141.97045778 47.2071955 145.63090607 48.72067154 149.36987305 50.38095093 C150.26448242 50.73415405 151.1590918 51.08735718 152.08081055 51.45126343 C160.5631972 54.80939304 168.50872055 59.01576923 176.50805664 63.37216187 C178.0441837 64.20448248 179.59050812 65.01795372 181.1394043 65.82626343 C185.07318768 67.90682837 188.13777228 70.06944051 191.43237305 73.06845093 C196.61037641 77.28183503 202.20955404 77.44648594 208.58862305 78.01376343 C220.19281441 79.14061672 232.79439506 85.84884192 242.36987305 92.38095093 C242.36987305 93.04095093 242.36987305 93.70095093 242.36987305 94.38095093 C242.93834961 94.63489624 243.50682617 94.88884155 244.0925293 95.15048218 C250.90554515 98.83161424 256.33268641 104.86935958 260.36987305 111.38095093 C260.36987305 112.04095093 260.36987305 112.70095093 260.36987305 113.38095093 C261.35987305 113.71095093 262.34987305 114.04095093 263.36987305 114.38095093 C264.6241892 116.51804408 265.70322778 118.58100387 266.74487305 120.81845093 C267.36128974 122.11308905 267.97848041 123.40735893 268.59643555 124.70126343 C269.04744629 125.65307495 269.04744629 125.65307495 269.50756836 126.62411499 C270.22688959 128.08964035 271.02037709 129.51846334 271.83081055 130.93563843 C281.73104272 148.27604508 280.14895197 172.94671513 277.78125 191.9805603 C277.06682798 198.0071594 277.06682798 198.0071594 279.06518555 203.59579468 C280.20600586 204.97444702 280.20600586 204.97444702 281.36987305 206.38095093 C282.84982353 209.04967975 284.13803976 211.80565462 285.43237305 214.56845093 C285.78380371 215.31586548 286.13523437 216.06328003 286.49731445 216.83334351 C288.77133544 221.78635543 290.57759026 226.65966187 291.79956055 231.98641968 C292.35233398 234.48644828 292.35233398 234.48644828 293.36987305 237.25204468 C295.82335514 244.92876014 298.80321969 257.2581159 295.18237305 264.88095093 C293.36987305 266.38095093 293.36987305 266.38095093 290.68237305 266.63095093 C289.91924805 266.54845093 289.15612305 266.46595093 288.36987305 266.38095093 C288.03987305 265.39095093 287.70987305 264.40095093 287.36987305 263.38095093 C286.37987305 263.05095093 285.38987305 262.72095093 284.36987305 262.38095093 C284.28946777 261.77098267 284.2090625 261.1610144 284.1262207 260.53256226 C283.75582017 257.75191635 283.37544476 254.97272225 282.99487305 252.19345093 C282.80538086 250.75389038 282.80538086 250.75389038 282.61206055 249.2852478 C282.4831543 248.35390015 282.35424805 247.42255249 282.22143555 246.46298218 C282.10622559 245.6093811 281.99101562 244.75578003 281.87231445 243.87631226 C281.33351507 241.20038003 280.43012636 238.89090632 279.36987305 236.38095093 C278.91177535 234.65712666 278.47488908 232.92755126 278.05737305 231.19345093 C276.55684958 225.50074334 274.19403719 220.52695753 271.36987305 215.38095093 C270.46237305 215.58720093 269.55487305 215.79345093 268.61987305 216.00595093 C265.36987305 216.38095093 265.36987305 216.38095093 263.05737305 215.81845093 C260.50395044 213.64331315 260.65116214 211.65875023 260.36987305 208.38095093 C261.0769043 205.51376343 261.0769043 205.51376343 262.18237305 202.50595093 C268.33730157 183.74300272 269.46647847 158.59831314 261.36987305 140.38095093 C261.05405273 139.58173218 260.73823242 138.78251343 260.4128418 137.95907593 C256.07062487 127.22550601 250.55523981 116.29964409 241.36206055 109.01376343 C239.36987305 107.38095093 239.36987305 107.38095093 237.0690918 104.94345093 C234.07470514 102.10073364 230.93577801 100.15420912 227.30737305 98.25595093 C226.32969971 97.73666016 226.32969971 97.73666016 225.33227539 97.20687866 C220.23297356 94.60011358 215.19289616 92.98665292 209.56518555 91.85360718 C207.36987305 91.38095093 207.36987305 91.38095093 206.36987305 90.38095093 C199.56211733 89.25659308 192.96142048 89.35209023 186.0847168 89.59579468 C179.9801616 89.70289214 179.9801616 89.70289214 176.81518555 88.03329468 C175.36987305 86.38095093 175.36987305 86.38095093 174.99487305 83.81845093 C175.36987305 81.38095093 175.36987305 81.38095093 177.36987305 79.38095093 C172.877234 75.33664177 167.85359714 72.98214459 162.43237305 70.44345093 C161.4995752 70.00251099 160.56677734 69.56157104 159.60571289 69.10726929 C153.29597013 66.16768811 146.99185301 63.59596437 140.37768555 61.41610718 C136.95798777 60.2391982 133.68822629 58.81806147 130.36987305 57.38095093 C129.12096053 56.88658972 127.86960367 56.39836237 126.6159668 55.91610718 C125.67527344 55.55162476 125.67527344 55.55162476 124.71557617 55.17977905 C123.44134402 54.68808456 122.16527902 54.20111432 120.88745117 53.71884155 C116.59708899 52.04423057 113.09158324 50.03603848 109.36987305 47.38095093 C109.43948242 47.98423218 109.5090918 48.58751343 109.58081055 49.20907593 C109.75082234 51.71877376 109.80552521 53.89944206 109.36987305 56.38095093 C106.36987305 58.94345093 106.36987305 58.94345093 103.36987305 60.38095093 C100.87625734 59.17713645 98.68844222 57.92666371 96.36987305 56.38095093 C96.36987305 41.86095093 96.36987305 27.34095093 96.36987305 12.38095093 C66.00987305 12.38095093 35.64987305 12.38095093 4.36987305 12.38095093 C4.36987305 26.90095093 4.36987305 41.42095093 4.36987305 56.38095093 C2.05987305 57.70095093 -0.25012695 59.02095093 -2.63012695 60.38095093 C-5.63012695 58.94345093 -5.63012695 58.94345093 -8.63012695 56.38095093 C-9.1671155 53.32222202 -8.98487247 50.45541204 -8.63012695 47.38095093 C-9.1405957 47.68388062 -9.65106445 47.9868103 -10.17700195 48.29891968 C-18.5748963 53.13813185 -27.37234224 56.61737409 -36.50512695 59.81845093 C-49.82053136 64.50240956 -62.35622717 70.4484705 -74.63012695 77.38095093 C-74.67164969 80.38441116 -74.67164969 80.38441116 -74.38012695 83.38095093 C-74.63012695 86.38095093 -74.63012695 86.38095093 -76.0324707 88.06063843 C-80.07169548 90.11365794 -83.98621052 89.65460586 -88.44262695 89.50595093 C-96.60732525 89.30198345 -103.86242457 89.54275198 -111.63012695 92.38095093 C-112.42161133 92.6361853 -113.2130957 92.89141968 -114.02856445 93.15438843 C-123.61239046 96.36730431 -132.79575224 100.76550482 -139.63012695 108.38095093 C-140.7698167 109.30524476 -141.91622265 110.22129168 -143.06762695 111.13095093 C-150.52252319 117.48858971 -154.55728793 126.6583835 -158.63012695 135.38095093 C-159.2044043 136.5643103 -159.2044043 136.5643103 -159.7902832 137.77157593 C-168.90477742 158.1492284 -167.8320778 184.90068304 -160.3371582 205.47860718 C-159.52943054 208.7943069 -159.86103155 211.08412796 -160.63012695 214.38095093 C-166.25512695 216.50595093 -166.25512695 216.50595093 -169.63012695 215.38095093 C-173.9663289 222.65957562 -177.58937778 229.75199368 -179.13793945 238.14266968 C-179.63012695 240.38095093 -179.63012695 240.38095093 -180.61450195 243.12704468 C-181.82248671 246.997242 -182.31198787 250.73864087 -182.75512695 254.75595093 C-182.84149414 255.49200562 -182.92786133 256.2280603 -183.0168457 256.98641968 C-183.2269458 258.78394275 -183.42933463 260.58236434 -183.63012695 262.38095093 C-184.62012695 262.71095093 -185.61012695 263.04095093 -186.63012695 263.38095093 C-186.96012695 264.37095093 -187.29012695 265.36095093 -187.63012695 266.38095093 C-190.58073838 266.69993595 -192.07111021 266.82430903 -194.44262695 264.94345093 C-197.30936278 258.75733678 -195.46319597 250.88652175 -194.31762695 244.38095093 C-194.1801001 243.58841919 -194.04257324 242.79588745 -193.90087891 241.9793396 C-192.92404579 236.56235596 -191.69684229 231.49245677 -189.63012695 226.38095093 C-188.92823242 224.55370483 -188.92823242 224.55370483 -188.2121582 222.68954468 C-187.68630033 221.33610184 -187.15894507 219.98323988 -186.63012695 218.63095093 C-186.38093506 217.99197876 -186.13174316 217.35300659 -185.875 216.69467163 C-183.93345477 211.84494492 -181.78286831 207.73486879 -178.3918457 203.75204468 C-175.80796491 198.80772289 -176.73062327 194.84783187 -177.44262695 189.44345093 C-179.92139926 166.2460513 -178.7592901 144.20362082 -167.63012695 123.38095093 C-167.30898926 122.77960327 -166.98785156 122.17825562 -166.65698242 121.5586853 C-162.83618705 114.50668779 -162.83618705 114.50668779 -160.63012695 111.38095093 C-159.97012695 111.38095093 -159.31012695 111.38095093 -158.63012695 111.38095093 C-158.3671582 110.80216187 -158.10418945 110.2233728 -157.83325195 109.62704468 C-154.56682968 103.52901607 -149.13284227 98.47599488 -143.63012695 94.38095093 C-142.97012695 94.38095093 -142.31012695 94.38095093 -141.63012695 94.38095093 C-141.13512695 92.89595093 -141.13512695 92.89595093 -140.63012695 91.38095093 C-138.12448005 89.9171101 -135.67836343 88.62661174 -133.06762695 87.38095093 C-132.37604492 87.0380603 -131.68446289 86.69516968 -130.97192383 86.34188843 C-126.86259391 84.33509544 -122.7209836 82.58358047 -118.41699219 81.03866577 C-116.95507342 80.50055822 -115.52456495 79.87780042 -114.10668945 79.23251343 C-111.41235928 78.30607182 -108.89154642 78.08566521 -106.05932617 77.90097046 C-96.90666692 77.25482361 -91.62665613 74.45911013 -84.63012695 68.38095093 C-80.82931068 65.60693469 -76.84494267 63.4650868 -72.63012695 61.38095093 C-71.70973633 60.90915405 -70.7893457 60.43735718 -69.84106445 59.95126343 C-57.34188561 53.58115851 -44.43594686 48.72334101 -31.16918945 44.20126343 C-24.64326446 41.87383563 -19.58144806 39.29963293 -14.3371582 34.73641968 C-12.63012695 33.38095093 -12.63012695 33.38095093 -10.63012695 33.38095093 C-9.61822222 30.01483949 -9.49176913 26.9145196 -9.4543457 23.40829468 C-9.43049805 22.26167358 -9.40665039 21.11505249 -9.38208008 19.9336853 C-9.33904492 17.51980414 -9.30783077 15.1056838 -9.28833008 12.6914978 C-9.24675781 10.97349976 -9.24675781 10.97349976 -9.2043457 9.22079468 C-9.18976318 8.1727063 -9.17518066 7.12461792 -9.16015625 6.04476929 C-8.63012695 3.38095093 -8.63012695 3.38095093 -6.88638306 1.73827171 C-4.32602236 0.19800738 -2.96147916 0.0041751 0 0 Z " fill="#FEFEFE" transform="translate(205.630126953125,35.619049072265625)"/>
<path d="M0 0 C2.1106359 1.57577215 2.90423985 2.45077343 3.36076355 5.06913757 C3.35410172 5.8618959 3.34743988 6.65465424 3.34057617 7.47143555 C3.34034958 8.37214279 3.34012299 9.27285004 3.33988953 10.20085144 C3.32440567 11.16968765 3.30892181 12.13852386 3.29296875 13.13671875 C3.28872391 14.13129593 3.28447906 15.12587311 3.28010559 16.15058899 C3.26330153 19.32983375 3.22564576 22.50844656 3.1875 25.6875 C3.17245541 27.84178773 3.15876662 29.99608538 3.14648438 32.15039062 C3.11339244 37.43380967 3.06317592 42.71685969 3 48 C4.09022461 47.67547852 5.18044922 47.35095703 6.30371094 47.01660156 C16.96396852 44.08467867 28.88015547 45.92210212 39 50 C42 50.58333333 42 50.58333333 45 50 C47.77069744 47.81268079 47.77069744 47.81268079 50 45 C50.86625 43.9790625 50.86625 43.9790625 51.75 42.9375 C54.05667659 39.36215128 54.04973408 36.22371397 53.8125 32.0625 C53.78059732 28.46281473 53.92593841 27.13715109 55.6875 23.875 C58 22 58 22 60.5625 21.5 C63.42965813 22.088135 64.20121173 22.73941699 66 25 C66.37231445 26.91357422 66.37231445 26.91357422 66.36328125 29.0546875 C66.36231445 30.22451172 66.36231445 30.22451172 66.36132812 31.41796875 C66.34521484 32.22878906 66.32910156 33.03960937 66.3125 33.875 C66.31572266 34.67808594 66.31894531 35.48117187 66.32226562 36.30859375 C66.2567462 43.53955595 64.36365483 48.13633883 60 54 C59.34 54 58.68 54 58 54 C57.814375 54.5775 57.62875 55.155 57.4375 55.75 C54.95973423 59.62824208 51.26423879 61.40728966 46.92578125 62.54296875 C40.14914304 63.57710564 32.89603831 62.71884043 26.609375 59.9453125 C23.31103268 58.75040406 20.50229704 58.69882208 17 58.6875 C15.80375 58.67074219 14.6075 58.65398437 13.375 58.63671875 C9.70424321 59.03183493 7.87958597 59.72204181 5 62 C2.60549894 65.54996904 2.82141054 68.65193586 2.9453125 72.84765625 C2.97059199 74.18814097 2.99531486 75.52863628 3.01953125 76.86914062 C3.06925987 78.97177488 3.12535934 81.07385329 3.19189453 83.17602539 C3.25227143 85.21243842 3.2878178 87.24813461 3.3203125 89.28515625 C3.35398926 90.50082275 3.38766602 91.71648926 3.42236328 92.96899414 C3 96 3 96 1.17529297 97.93139648 C-1.88751084 99.43598597 -3.77448585 98.91155835 -7 98 C-9.8513135 95.1486865 -9.30014752 93.1182513 -9.37890625 89.12890625 C-9.39590073 88.45077377 -9.4128952 87.7726413 -9.43040466 87.07395935 C-9.48358837 84.90356798 -9.52383622 82.7331948 -9.5625 80.5625 C-9.60647975 78.39547611 -9.65326286 76.22859786 -9.70530701 74.06175232 C-9.75180648 72.0928171 -9.78932379 70.12367592 -9.82641602 68.15454102 C-9.86244738 64.97328114 -9.86244738 64.97328114 -11 62 C-16.68767725 57.57855746 -23.13967021 58.41044041 -30 59 C-32.38337186 59.59947615 -34.5719725 60.36826708 -36.859375 61.2578125 C-43.70882806 63.63262287 -51.2406885 63.65222509 -58 61 C-60.39542103 59.50841824 -62.00304665 58.04815728 -64 56 C-64 55.34 -64 54.68 -64 54 C-64.598125 53.773125 -65.19625 53.54625 -65.8125 53.3125 C-69.06177404 51.36293558 -70.49241522 48.69405333 -71.56933594 45.09985352 C-72.32724059 41.40442388 -72.22610688 37.69767916 -72.25 33.9375 C-72.270625 33.12216797 -72.29125 32.30683594 -72.3125 31.46679688 C-72.31765625 30.68240234 -72.3228125 29.89800781 -72.328125 29.08984375 C-72.3374707 28.37691162 -72.34681641 27.66397949 -72.35644531 26.92944336 C-71.89319488 24.42186242 -70.99280471 23.54457236 -69 22 C-66.28280625 21.59242094 -64.7374526 21.5210173 -62.40625 23.03515625 C-60.27318971 26.01551549 -60.28336026 29.26083677 -60 32.8125 C-59.49304902 39.06297512 -58.75850375 44.40867829 -53.9375 48.9375 C-47.64546222 51.21334345 -41.09112601 49.21495491 -35 47 C-26.14725147 44.89220273 -17.66969211 45.7515388 -9 48 C-9.00666183 47.44289841 -9.01332367 46.88579681 -9.02018738 46.31181335 C-9.08648566 40.5208411 -9.1317775 34.72997639 -9.16479492 28.9387207 C-9.17989444 26.77656679 -9.20037571 24.61444357 -9.22631836 22.45239258 C-9.26265017 19.347091 -9.27971462 16.24219386 -9.29296875 13.13671875 C-9.30845261 12.16788254 -9.32393646 11.19904633 -9.33988953 10.20085144 C-9.34011612 9.3001442 -9.34034271 8.39943695 -9.34057617 7.47143555 C-9.34723801 6.67867722 -9.35389984 5.88591888 -9.36076355 5.06913757 C-8.44230996 -0.19859759 -4.7180523 -0.58975654 0 0 Z " fill="#FEFEFE" transform="translate(259,302)"/>
<path d="M0 0 C1.625 1.8125 1.625 1.8125 2.1875 4.25 C1.38336408 7.91328586 -0.28849384 8.76596682 -3.375 10.8125 C-6.671875 11.60546875 -6.671875 11.60546875 -10.125 12 C-14.0705549 12.14381844 -14.0705549 12.14381844 -17.375 13.8125 C-19.06579567 14.09803667 -20.76619516 14.32722007 -22.46875 14.53125 C-23.49871094 14.65886719 -24.52867187 14.78648437 -25.58984375 14.91796875 C-27.77994792 15.18098958 -29.97005208 15.44401042 -32.16015625 15.70703125 C-33.19011719 15.83464844 -34.22007812 15.96226562 -35.28125 16.09375 C-36.23322266 16.20783203 -37.18519531 16.32191406 -38.16601562 16.43945312 C-40.34339397 16.5877315 -40.34339397 16.5877315 -41.375 17.8125 C-43.51775972 18.15953084 -45.66985336 18.44921354 -47.82421875 18.71484375 C-49.1608174 18.88468606 -50.49740561 19.05461063 -51.83398438 19.22460938 C-53.94238852 19.48757891 -56.05101406 19.74858949 -58.15991211 20.00756836 C-60.19453409 20.25899002 -62.2281129 20.51784925 -64.26171875 20.77734375 C-65.48076904 20.9280835 -66.69981934 21.07882324 -67.95581055 21.23413086 C-72.56783516 22.01427269 -76.58682797 23.47471199 -80.875 25.3125 C-82.03 25.8075 -83.185 26.3025 -84.375 26.8125 C-85.921875 27.493125 -85.921875 27.493125 -87.5 28.1875 C-90.375 28.8125 -90.375 28.8125 -93.25 27.875 C-95.375 25.8125 -95.375 25.8125 -96.125 22.4375 C-95.375 18.8125 -95.375 18.8125 -92.5 16.0625 C-88.71369249 13.70381663 -84.70903454 12.50653918 -80.4140625 11.390625 C-78.39801375 10.99798455 -78.39801375 10.99798455 -77.375 9.8125 C-75.83051341 9.52802851 -74.27583046 9.29835523 -72.71875 9.09375 C-71.77902344 8.96613281 -70.83929688 8.83851562 -69.87109375 8.70703125 C-66.875 8.3125 -66.875 8.3125 -63.87890625 7.91796875 C-62.93917969 7.79035156 -61.99945313 7.66273437 -61.03125 7.53125 C-59.72897461 7.36012695 -59.72897461 7.36012695 -58.40039062 7.18554688 C-56.38590638 7.01251486 -56.38590638 7.01251486 -55.375 5.8125 C-53.10063405 5.45331016 -50.81708205 5.15200118 -48.53125 4.875 C-47.84695923 4.79000244 -47.16266846 4.70500488 -46.4576416 4.61743164 C-43.51924109 4.2525815 -40.57964475 3.89779019 -37.64013672 3.54199219 C-35.49923646 3.28142677 -33.35899985 3.01584607 -31.21875 2.75 C-29.93162109 2.59402344 -28.64449219 2.43804687 -27.31835938 2.27734375 C-24.49336076 2.1269088 -24.49336076 2.1269088 -23.375 0.8125 C-20.97740614 0.40748106 -18.59773086 0.05841817 -16.1875 -0.25 C-15.52685547 -0.34087891 -14.86621094 -0.43175781 -14.18554688 -0.52539062 C-3.78248387 -1.89124194 -3.78248387 -1.89124194 0 0 Z " fill="#FEFEFE" transform="translate(365.375,117.1875)"/>
<path d="M0 0 C1.1446875 0.11859375 2.289375 0.2371875 3.46875 0.359375 C4.5515625 0.48828125 5.634375 0.6171875 6.75 0.75 C7.6059375 0.83765625 8.461875 0.9253125 9.34375 1.015625 C14.58536585 1.58536585 14.58536585 1.58536585 15.75 2.75 C18.02436595 3.10918984 20.30791795 3.41049882 22.59375 3.6875 C23.62018616 3.81499634 23.62018616 3.81499634 24.6673584 3.94506836 C26.86109291 4.21745612 29.05543754 4.4843702 31.25 4.75 C34.13603856 5.09932606 37.02131901 5.45415512 39.90625 5.8125 C41.83694336 6.04646484 41.83694336 6.04646484 43.80664062 6.28515625 C46.75 6.75 46.75 6.75 47.75 7.75 C49.21278926 8.01080594 50.68542267 8.2169629 52.16015625 8.3984375 C53.06830078 8.51703125 53.97644531 8.635625 54.91210938 8.7578125 C56.81782207 8.99907444 58.72406617 9.23618201 60.63085938 9.46875 C68.34596555 10.48803318 74.84958656 12.4789422 81.6875 16.3125 C82.43902344 16.72628906 83.19054687 17.14007813 83.96484375 17.56640625 C85.75 18.75 85.75 18.75 86.75 20.75 C87.0625 23.6875 87.0625 23.6875 86.75 26.75 C85.0625 28.6875 85.0625 28.6875 82.75 29.75 C79.74821201 29.59606215 78.03133606 28.92974248 75.5 27.3125 C72.40813975 25.55576122 69.69085377 24.93870845 66.2265625 24.27734375 C63.75 23.75 63.75 23.75 60.734375 22.7890625 C55.40488316 21.23444786 49.87454702 20.80693646 44.375 20.1875 C42.20007782 19.94006136 40.02556745 19.68896579 37.8515625 19.43359375 C36.41804443 19.27201782 36.41804443 19.27201782 34.95556641 19.10717773 C32.75 18.75 32.75 18.75 31.75 17.75 C30.05920433 17.46446333 28.35880484 17.23527993 26.65625 17.03125 C25.11130859 16.83982422 25.11130859 16.83982422 23.53515625 16.64453125 C22.45105469 16.51433594 21.36695313 16.38414062 20.25 16.25 C18.11411053 15.99349009 15.97866152 15.73327596 13.84375 15.46875 C12.89177734 15.35466797 11.93980469 15.24058594 10.95898438 15.12304688 C8.75 14.75 8.75 14.75 7.75 13.75 C4.52134311 13.28941477 1.28707687 12.91317281 -1.953125 12.54296875 C-5.6771839 11.64725316 -7.54085344 10.42409291 -10.25 7.75 C-10.8125 5.1875 -10.8125 5.1875 -10.25 2.75 C-6.94031582 -0.60685308 -4.55180942 -0.4961688 0 0 Z " fill="#FEFEFE" transform="translate(155.25,116.25)"/>
<path d="M0 0 C4.41007074 6.11194368 2.34597938 17.86322169 1.375 24.9375 C0.25839801 30.32771534 -2.29981308 34.00794082 -6 38 C-6.51691406 38.5671875 -7.03382813 39.134375 -7.56640625 39.71875 C-9 41 -9 41 -11 41 C-11.33 41.99 -11.66 42.98 -12 44 C-20.11722334 50.12891359 -33.38322864 48.90418354 -43 48 C-43.33 47.67 -43.66 47.34 -44 47 C-46.7692064 46.46329713 -49.54945085 46.0351126 -52.3359375 45.59765625 C-55 45 -55 45 -58 43 C-58.375 39.5 -58.375 39.5 -58 36 C-54.50269006 33.66846004 -53.45526025 33.83048661 -49.37109375 34.09375 C-48.25283203 34.15433594 -47.13457031 34.21492188 -45.98242188 34.27734375 C-43.6463763 34.42407058 -41.31043495 34.5724678 -38.97460938 34.72265625 C-30.73124295 35.16569595 -22.32728946 35.3580279 -15 31 C-14.32843384 29.06381575 -14.32843384 29.06381575 -14 27 C-13.34 26.01 -12.68 25.02 -12 24 C-10.69578307 19.34455017 -10.66877581 14.49121233 -10.4375 9.6875 C-10.37272461 8.43356445 -10.37272461 8.43356445 -10.30664062 7.15429688 C-10.20114693 5.10303065 -10.10012685 3.0515352 -10 1 C-6.25511144 -1.0913014 -4.18461431 -1.27357827 0 0 Z " fill="#FEFEFE" transform="translate(320,363)"/>
<path d="M0 0 C3.48759925 0.68050717 4.43832238 1.64273821 6.5625 4.5 C7.14875497 7.47290909 7.16807083 10.41383511 7.1875 13.4375 C7.12797682 22.22459477 7.12797682 22.22459477 11.5625 29.5 C11.5625 30.49 11.5625 31.48 11.5625 32.5 C21.39990319 37.84739577 32.60233734 36.50509306 43.37207031 35.78198242 C44.38495117 35.71986572 45.39783203 35.65774902 46.44140625 35.59375 C47.3547876 35.52865234 48.26816895 35.46355469 49.20922852 35.39648438 C51.5625 35.5 51.5625 35.5 54.5625 37.5 C54.75 41.125 54.75 41.125 54.5625 44.5 C49.79746378 46.73664965 45.84060598 47.86662728 40.5625 48.5 C40.2325 48.83 39.9025 49.16 39.5625 49.5 C28.72870534 50.61936932 16.68822379 51.1485133 7.5625 44.5 C0.17867186 38.34474158 -4.3006426 32.22644666 -5.4375 22.5 C-5.62892619 19.39544135 -5.70936961 16.29743046 -5.75 13.1875 C-5.76764404 12.39835205 -5.78528809 11.6092041 -5.8034668 10.79614258 C-5.79937702 7.31723347 -5.75574933 5.08466949 -4.0703125 1.98828125 C-2.4375 0.5 -2.4375 0.5 0 0 Z " fill="#FEFEFE" transform="translate(195.4375,361.5)"/>
<path d="M0 0 C2 1.75 2 1.75 3 4 C2.86898836 7.93034909 0.26575949 10.9345607 -2 14 C-2.99 14.66 -3.98 15.32 -5 16 C-5.47338441 18.12414959 -5.47338441 18.12414959 -5.5 20.5625 C-6.23677137 30.25173853 -9.85833492 39.90118213 -16.875 46.859375 C-18.05366853 47.85142101 -19.25456786 48.81819872 -20.484375 49.74609375 C-22.28115348 51.11027246 -22.28115348 51.11027246 -24 54 C-26.27931273 55.30817698 -28.51334736 56.48986757 -30.875 57.625 C-31.50019531 57.93695313 -32.12539063 58.24890625 -32.76953125 58.5703125 C-38.9038028 61.5790884 -38.9038028 61.5790884 -42 62 C-44.25 61.0625 -44.25 61.0625 -46 59 C-46.34707128 56.24512169 -46.18328516 53.79509871 -46 51 C-45.39414062 50.72027344 -44.78828125 50.44054687 -44.1640625 50.15234375 C-33.85946755 45.2219914 -24.293742 40.20156494 -20.26171875 28.9375 C-19.77902048 27.3088038 -19.3794535 25.65579708 -19 24 C-20.11375 24.12375 -20.11375 24.12375 -21.25 24.25 C-24 24 -24 24 -26.3125 22.3125 C-28.31408296 19.56959002 -28.1478448 18.30186721 -28 15 C-26.96359375 14.49210937 -25.9271875 13.98421875 -24.859375 13.4609375 C-23.48916591 12.76644796 -22.11939717 12.07108913 -20.75 11.375 C-20.06808594 11.04371094 -19.38617188 10.71242188 -18.68359375 10.37109375 C-14.00168657 7.96195704 -11.72838693 5.63825779 -9 1 C-5.9167365 -0.54163175 -3.39121901 -0.29747535 0 0 Z " fill="#FEFEFE" transform="translate(378,292)"/>
<path d="M0 0 C3 2 3 2 4.20703125 4.35546875 C6.7019814 8.03538433 9.76613829 9.38294106 13.6875 11.3125 C14.38939453 11.67150391 15.09128906 12.03050781 15.81445312 12.40039062 C17.53679405 13.279136 19.26759902 14.14125757 21 15 C21.2109375 19.7109375 21.2109375 19.7109375 19.3125 22.3125 C16.56959002 24.31408296 15.30186721 24.1478448 12 24 C12.59852427 25.56467003 13.20410673 27.12664086 13.8125 28.6875 C14.14894531 29.55761719 14.48539063 30.42773438 14.83203125 31.32421875 C19.13983085 41.19325796 27.6541989 46.43918414 37.41796875 50.40625 C37.94003906 50.6021875 38.46210938 50.798125 39 51 C39.48695652 58.42608696 39.48695652 58.42608696 37.25 61.0625 C34.46164636 62.22431402 33.83805026 61.94279353 31 61 C28.65350659 59.95960006 26.36008759 58.88789902 24.0625 57.75 C23.45470703 57.46253906 22.84691406 57.17507813 22.22070312 56.87890625 C18.04386009 54.81526644 15.11808823 52.43747574 12 49 C11.45214844 48.40316406 10.90429688 47.80632812 10.33984375 47.19140625 C3.19453088 38.89169743 -0.69046587 31.20705248 -1.375 20.125 C-1.67575224 16.60995825 -1.93733641 16.07420688 -4.375 13.1875 C-5.674375 12.1046875 -5.674375 12.1046875 -7 11 C-8.875 8.9375 -8.875 8.9375 -10 7 C-9.85030986 4.53011263 -9.194036 3.28594778 -7.8125 1.25 C-5.14750443 -0.58792798 -3.16053805 -0.32922271 0 0 Z " fill="#FEFEFE" transform="translate(141,292)"/>
<path d="M0 0 C12.48819776 2.28255284 25.01206389 11.83638347 32.66015625 21.71875 C33.47265625 25.59375 33.47265625 25.59375 32.66015625 28.71875 C30.91015625 30.71875 30.91015625 30.71875 28.66015625 31.71875 C25.09240422 31.30457105 23.49798392 29.86415293 21.09765625 27.28125 C18.98129318 25.02348183 17.2699684 23.45862477 14.66015625 21.71875 C14.66015625 21.05875 14.66015625 20.39875 14.66015625 19.71875 C13.94085938 19.4403125 13.2215625 19.161875 12.48046875 18.875 C9.76612192 17.76219299 7.16912006 16.50821288 4.53515625 15.21875 C-0.28868075 12.98984971 -4.77372554 11.87066389 -10.02734375 11.17578125 C-12.33984375 10.71875 -12.33984375 10.71875 -15.33984375 8.71875 C-15.99288623 3.60325057 -15.99288623 3.60325057 -14.10546875 1.046875 C-10.23815235 -1.86216831 -4.56385661 -0.54857709 0 0 Z " fill="#FEFEFE" transform="translate(282.33984375,296.28125)"/>
<path d="M0 0 C0.84820312 -0.02578125 1.69640625 -0.0515625 2.5703125 -0.078125 C4.875 0.25 4.875 0.25 6.66796875 1.56640625 C8.46475649 4.07260533 8.07447645 6.25785324 7.875 9.25 C3.87544258 11.16283181 0.31363626 12.43672546 -4.0625 13.1875 C-16.11428858 15.47443578 -24.74218847 23.68593849 -33.125 32.25 C-35.61861571 31.04618552 -37.80643083 29.79571278 -40.125 28.25 C-40.65625 25.50390625 -40.65625 25.50390625 -40.125 22.25 C-38.34048029 19.93904698 -36.73562292 18.14543421 -34.625 16.1875 C-34.07473145 15.66091797 -33.52446289 15.13433594 -32.95751953 14.59179688 C-23.83627017 6.03912408 -12.719624 0.2333876 0 0 Z " fill="#FEFEFE" transform="translate(237.125,295.75)"/>
<path d="M0 0 C4.00673303 1.81450941 7.29745069 3.48397254 9.1875 7.5625 C8.95186893 10.62570392 8.20056496 11.87802664 6 14 C5.01 14 4.02 14 3 14 C2.9175 14.763125 2.835 15.52625 2.75 16.3125 C1.85384206 19.52373261 0.78388975 20.29374499 -2 22 C-4.49361571 20.79618552 -6.68143083 19.54571278 -9 18 C-9 16.68 -9 15.36 -9 14 C-9.928125 13.8453125 -9.928125 13.8453125 -10.875 13.6875 C-13 13 -13 13 -15 10 C-15.125 7.625 -15.125 7.625 -14 5 C-9.86195476 1.39272541 -5.56771949 -1.15994156 0 0 Z " fill="#FEFEFE" transform="translate(259,407)"/>
<path d="M0 0 C1.97806641 -0.00773437 1.97806641 -0.00773437 3.99609375 -0.015625 C7.1989784 0.22292501 8.91108447 0.5411593 11.5625 2.25 C11.5625 4.89 11.5625 7.53 11.5625 10.25 C7.92461946 12.54186474 4.8006715 12.51795835 0.5625 12.5 C-0.654375 12.50515625 -1.87125 12.5103125 -3.125 12.515625 C-6.19038791 12.26981559 -7.87412952 11.8649234 -10.4375 10.25 C-10.73046875 4.1953125 -10.73046875 4.1953125 -10.4375 2.25 C-6.82740719 -0.15672854 -4.16774719 -0.04795107 0 0 Z " fill="#FEFEFE" transform="translate(351.4375,260.75)"/>
<path d="M0 0 C1.216875 -0.00515625 2.43375 -0.0103125 3.6875 -0.015625 C6.75288791 0.23018441 8.43662952 0.6350766 11 2.25 C11 4.89 11 7.53 11 10.25 C7.36211946 12.54186474 4.2381715 12.51795835 0 12.5 C-1.216875 12.50515625 -2.43375 12.5103125 -3.6875 12.515625 C-6.75288791 12.26981559 -8.43662952 11.8649234 -11 10.25 C-11 7.61 -11 4.97 -11 2.25 C-7.36211946 -0.04186474 -4.2381715 -0.01795835 0 0 Z " fill="#FEFEFE" transform="translate(160,260.75)"/>
<path d="M0 0 C1.8871875 0.00773438 1.8871875 0.00773438 3.8125 0.015625 C5.070625 0.01046875 6.32875 0.0053125 7.625 0 C10.8125 0.265625 10.8125 0.265625 12.8125 2.265625 C13.1875 5.703125 13.1875 5.703125 12.8125 9.265625 C10.70221058 11.36146039 9.32051348 12.18258433 6.375 12.6640625 C5.529375 12.65632812 4.68375 12.64859375 3.8125 12.640625 C2.966875 12.64835938 2.12125 12.65609375 1.25 12.6640625 C-1.69551348 12.18258433 -3.07721058 11.36146039 -5.1875 9.265625 C-5.5625 5.703125 -5.5625 5.703125 -5.1875 2.265625 C-3.1875 0.265625 -3.1875 0.265625 0 0 Z " fill="#FEFEFE" transform="translate(252.1875,142.734375)"/>
</svg>
